<svg width="81" height="80" viewBox="0 0 81 80" fill="none" xmlns="http://www.w3.org/2000/svg">
<g clip-path="url(#clip0_40_1026)">
<path d="M80.5 21.1804C80.9306 33.457 72.6636 43.575 60.9952 44.7442C57.2061 45.104 53.2879 44.7892 48.4656 44.7892C53.3741 39.303 57.6798 34.3564 62.1146 29.4997C64.5689 26.7566 66.8509 24.0135 65.1717 19.9213C63.4925 15.9191 60.2201 15.4244 56.5172 15.5143C48.3794 15.6043 40.2847 15.3794 32.19 15.6492C30.7691 15.6492 28.8315 17.0433 28.1426 18.3474C26.4203 21.6301 25.2578 25.2277 23.6216 29.3198H56.0867C40.6292 46.9028 26.0759 63.4514 11.5226 80C11.2643 79.8201 20.866 57.1107 26.2051 45.2839H0.5C0.973628 43.4851 1.23197 42.226 1.61948 41.0118C5.96825 28.5554 10.4031 16.0989 14.5797 3.59753C15.5269 0.854413 16.7325 0 19.5312 0C32.7067 0.179876 45.8821 0 59.0576 0.0899382C70.683 0.224845 80.0694 9.57841 80.5 21.1804Z" fill="white"/>
</g>
<defs>
<clipPath id="clip0_40_1026">
<rect width="80" height="80" fill="white" transform="translate(0.5)"/>
</clipPath>
</defs>
</svg>
