<svg width="86" height="85" viewBox="0 0 86 85" fill="none" xmlns="http://www.w3.org/2000/svg">
<rect x="0.5" width="85" height="85" rx="42.5" fill="#F8F9FF"/>
<path fill-rule="evenodd" clip-rule="evenodd" d="M55.2498 42.5C55.2498 42.9062 55.0885 43.2956 54.8013 43.5828C54.5142 43.87 54.1247 44.0313 53.7186 44.0313H35.9775L42.5527 50.6034C42.6951 50.7458 42.808 50.9148 42.885 51.1008C42.9621 51.2868 43.0017 51.4862 43.0017 51.6875C43.0017 51.8889 42.9621 52.0883 42.885 52.2743C42.808 52.4603 42.6951 52.6293 42.5527 52.7717C42.4103 52.914 42.2413 53.027 42.0553 53.104C41.8693 53.1811 41.6699 53.2207 41.4686 53.2207C41.2672 53.2207 41.0678 53.1811 40.8818 53.104C40.6958 53.027 40.5268 52.914 40.3844 52.7717L31.1969 43.5842C31.0543 43.4419 30.9412 43.273 30.864 43.0869C30.7868 42.9009 30.7471 42.7015 30.7471 42.5C30.7471 42.2986 30.7868 42.0992 30.864 41.9132C30.9412 41.7271 31.0543 41.5582 31.1969 41.4159L40.3844 32.2284C40.672 31.9409 41.0619 31.7794 41.4686 31.7794C41.8752 31.7794 42.2652 31.9409 42.5527 32.2284C42.8402 32.5159 43.0017 32.9059 43.0017 33.3125C43.0017 33.7192 42.8402 34.1091 42.5527 34.3967L35.9775 40.9688H53.7186C54.1247 40.9688 54.5142 41.1301 54.8013 41.4173C55.0885 41.7045 55.2498 42.0939 55.2498 42.5Z" fill="#684FFF"/>
</svg>
