<svg width="172" height="77" viewBox="0 0 172 77" fill="none" xmlns="http://www.w3.org/2000/svg">
<g filter="url(#filter0_d_40_745)">
<rect x="5" y="4.5" width="160" height="64" rx="32" fill="white"/>
<path d="M52.3628 34.668C52.1388 34.2573 51.8308 33.9447 51.4388 33.73C51.0468 33.5153 50.5894 33.408 50.0668 33.408C49.4881 33.408 48.9748 33.5387 48.5268 33.8C48.0788 34.0613 47.7288 34.4347 47.4768 34.92C47.2248 35.4053 47.0988 35.9653 47.0988 36.6C47.0988 37.2533 47.2248 37.8227 47.4768 38.308C47.7381 38.7933 48.0974 39.1667 48.5548 39.428C49.0121 39.6893 49.5441 39.82 50.1508 39.82C50.8974 39.82 51.5088 39.624 51.9848 39.232C52.4608 38.8307 52.7734 38.2753 52.9228 37.566H49.5628V36.068H54.8548V37.776C54.7241 38.4573 54.4441 39.0873 54.0148 39.666C53.5854 40.2447 53.0301 40.7113 52.3488 41.066C51.6768 41.4113 50.9208 41.584 50.0808 41.584C49.1381 41.584 48.2841 41.374 47.5188 40.954C46.7628 40.5247 46.1654 39.932 45.7268 39.176C45.2974 38.42 45.0828 37.5613 45.0828 36.6C45.0828 35.6387 45.2974 34.78 45.7268 34.024C46.1654 33.2587 46.7628 32.666 47.5188 32.246C48.2841 31.8167 49.1334 31.602 50.0668 31.602C51.1681 31.602 52.1248 31.8727 52.9368 32.414C53.7488 32.946 54.3088 33.6973 54.6168 34.668H52.3628ZM63.5149 37.454C63.5149 37.734 63.4962 37.986 63.4589 38.21H57.7889C57.8355 38.77 58.0315 39.2087 58.3769 39.526C58.7222 39.8433 59.1469 40.002 59.6509 40.002C60.3789 40.002 60.8969 39.6893 61.2049 39.064H63.3189C63.0949 39.8107 62.6655 40.4267 62.0309 40.912C61.3962 41.388 60.6169 41.626 59.6929 41.626C58.9462 41.626 58.2742 41.4627 57.6769 41.136C57.0889 40.8 56.6269 40.3287 56.2909 39.722C55.9642 39.1153 55.8009 38.4153 55.8009 37.622C55.8009 36.8193 55.9642 36.1147 56.2909 35.508C56.6175 34.9013 57.0749 34.4347 57.6629 34.108C58.2509 33.7813 58.9275 33.618 59.6929 33.618C60.4302 33.618 61.0882 33.7767 61.6669 34.094C62.2549 34.4113 62.7075 34.864 63.0249 35.452C63.3515 36.0307 63.5149 36.698 63.5149 37.454ZM61.4849 36.894C61.4755 36.39 61.2935 35.9887 60.9389 35.69C60.5842 35.382 60.1502 35.228 59.6369 35.228C59.1515 35.228 58.7409 35.3773 58.4049 35.676C58.0782 35.9653 57.8775 36.3713 57.8029 36.894H61.4849ZM67.2275 35.354V39.106C67.2275 39.3673 67.2882 39.5587 67.4095 39.68C67.5402 39.792 67.7548 39.848 68.0535 39.848H68.9635V41.5H67.7315C66.0795 41.5 65.2535 40.6973 65.2535 39.092V35.354H64.3295V33.744H65.2535V31.826H67.2275V33.744H68.9635V35.354H67.2275ZM77.0832 41.598C76.4018 41.598 75.7858 41.4813 75.2352 41.248C74.6938 41.0147 74.2645 40.6787 73.9472 40.24C73.6298 39.8013 73.4665 39.2833 73.4572 38.686H75.5572C75.5852 39.0873 75.7252 39.4047 75.9772 39.638C76.2385 39.8713 76.5932 39.988 77.0412 39.988C77.4985 39.988 77.8578 39.8807 78.1192 39.666C78.3805 39.442 78.5112 39.1527 78.5112 38.798C78.5112 38.5087 78.4225 38.2707 78.2452 38.084C78.0678 37.8973 77.8438 37.7527 77.5732 37.65C77.3118 37.538 76.9478 37.4167 76.4812 37.286C75.8465 37.0993 75.3285 36.9173 74.9272 36.74C74.5352 36.5533 74.1945 36.278 73.9052 35.914C73.6252 35.5407 73.4852 35.046 73.4852 34.43C73.4852 33.8513 73.6298 33.3473 73.9192 32.918C74.2085 32.4887 74.6145 32.162 75.1372 31.938C75.6598 31.7047 76.2572 31.588 76.9292 31.588C77.9372 31.588 78.7538 31.8353 79.3792 32.33C80.0138 32.8153 80.3638 33.4967 80.4292 34.374H78.2732C78.2545 34.038 78.1098 33.7627 77.8392 33.548C77.5778 33.324 77.2278 33.212 76.7892 33.212C76.4065 33.212 76.0985 33.31 75.8652 33.506C75.6412 33.702 75.5292 33.9867 75.5292 34.36C75.5292 34.6213 75.6132 34.8407 75.7812 35.018C75.9585 35.186 76.1732 35.326 76.4252 35.438C76.6865 35.5407 77.0505 35.662 77.5172 35.802C78.1518 35.9887 78.6698 36.1753 79.0712 36.362C79.4725 36.5487 79.8178 36.8287 80.1072 37.202C80.3965 37.5753 80.5412 38.0653 80.5412 38.672C80.5412 39.1947 80.4058 39.68 80.1352 40.128C79.8645 40.576 79.4678 40.9353 78.9452 41.206C78.4225 41.4673 77.8018 41.598 77.0832 41.598ZM84.5224 35.354V39.106C84.5224 39.3673 84.5831 39.5587 84.7044 39.68C84.8351 39.792 85.0497 39.848 85.3484 39.848H86.2584V41.5H85.0264C83.3744 41.5 82.5484 40.6973 82.5484 39.092V35.354H81.6244V33.744H82.5484V31.826H84.5224V33.744H86.2584V35.354H84.5224ZM87.1641 37.594C87.1641 36.81 87.3181 36.1147 87.6261 35.508C87.9435 34.9013 88.3681 34.4347 88.9001 34.108C89.4415 33.7813 90.0435 33.618 90.7061 33.618C91.2848 33.618 91.7888 33.7347 92.2181 33.968C92.6568 34.2013 93.0068 34.4953 93.2681 34.85V33.744H95.2421V41.5H93.2681V40.366C93.0161 40.73 92.6661 41.0333 92.2181 41.276C91.7795 41.5093 91.2708 41.626 90.6921 41.626C90.0388 41.626 89.4415 41.458 88.9001 41.122C88.3681 40.786 87.9435 40.3147 87.6261 39.708C87.3181 39.092 87.1641 38.3873 87.1641 37.594ZM93.2681 37.622C93.2681 37.146 93.1748 36.74 92.9881 36.404C92.8015 36.0587 92.5495 35.7973 92.2321 35.62C91.9148 35.4333 91.5741 35.34 91.2101 35.34C90.8461 35.34 90.5101 35.4287 90.2021 35.606C89.8941 35.7833 89.6421 36.0447 89.4461 36.39C89.2595 36.726 89.1661 37.1273 89.1661 37.594C89.1661 38.0607 89.2595 38.4713 89.4461 38.826C89.6421 39.1713 89.8941 39.4373 90.2021 39.624C90.5195 39.8107 90.8555 39.904 91.2101 39.904C91.5741 39.904 91.9148 39.8153 92.2321 39.638C92.5495 39.4513 92.8015 39.19 92.9881 38.854C93.1748 38.5087 93.2681 38.098 93.2681 37.622ZM99.1164 34.948C99.3684 34.5373 99.6951 34.2153 100.096 33.982C100.507 33.7487 100.974 33.632 101.496 33.632V35.69H100.978C100.362 35.69 99.8958 35.8347 99.5784 36.124C99.2704 36.4133 99.1164 36.9173 99.1164 37.636V41.5H97.1564V33.744H99.1164V34.948ZM105.099 35.354V39.106C105.099 39.3673 105.159 39.5587 105.281 39.68C105.411 39.792 105.626 39.848 105.925 39.848H106.835V41.5H105.603C103.951 41.5 103.125 40.6973 103.125 39.092V35.354H102.201V33.744H103.125V31.826H105.099V33.744H106.835V35.354H105.099ZM115.454 37.454C115.454 37.734 115.436 37.986 115.398 38.21H109.728C109.775 38.77 109.971 39.2087 110.316 39.526C110.662 39.8433 111.086 40.002 111.59 40.002C112.318 40.002 112.836 39.6893 113.144 39.064H115.258C115.034 39.8107 114.605 40.4267 113.97 40.912C113.336 41.388 112.556 41.626 111.632 41.626C110.886 41.626 110.214 41.4627 109.616 41.136C109.028 40.8 108.566 40.3287 108.23 39.722C107.904 39.1153 107.74 38.4153 107.74 37.622C107.74 36.8193 107.904 36.1147 108.23 35.508C108.557 34.9013 109.014 34.4347 109.602 34.108C110.19 33.7813 110.867 33.618 111.632 33.618C112.37 33.618 113.028 33.7767 113.606 34.094C114.194 34.4113 114.647 34.864 114.964 35.452C115.291 36.0307 115.454 36.698 115.454 37.454ZM113.424 36.894C113.415 36.39 113.233 35.9887 112.878 35.69C112.524 35.382 112.09 35.228 111.576 35.228C111.091 35.228 110.68 35.3773 110.344 35.676C110.018 35.9653 109.817 36.3713 109.742 36.894H113.424ZM116.381 37.594C116.381 36.81 116.535 36.1147 116.843 35.508C117.16 34.9013 117.59 34.4347 118.131 34.108C118.672 33.7813 119.274 33.618 119.937 33.618C120.441 33.618 120.922 33.73 121.379 33.954C121.836 34.1687 122.2 34.458 122.471 34.822V31.14H124.459V41.5H122.471V40.352C122.228 40.7347 121.888 41.0427 121.449 41.276C121.01 41.5093 120.502 41.626 119.923 41.626C119.27 41.626 118.672 41.458 118.131 41.122C117.59 40.786 117.16 40.3147 116.843 39.708C116.535 39.092 116.381 38.3873 116.381 37.594ZM122.485 37.622C122.485 37.146 122.392 36.74 122.205 36.404C122.018 36.0587 121.766 35.7973 121.449 35.62C121.132 35.4333 120.791 35.34 120.427 35.34C120.063 35.34 119.727 35.4287 119.419 35.606C119.111 35.7833 118.859 36.0447 118.663 36.39C118.476 36.726 118.383 37.1273 118.383 37.594C118.383 38.0607 118.476 38.4713 118.663 38.826C118.859 39.1713 119.111 39.4373 119.419 39.624C119.736 39.8107 120.072 39.904 120.427 39.904C120.791 39.904 121.132 39.8153 121.449 39.638C121.766 39.4513 122.018 39.19 122.205 38.854C122.392 38.5087 122.485 38.098 122.485 37.622Z" fill="#684FFF"/>
</g>
<defs>
<filter id="filter0_d_40_745" x="0" y="0.5" width="172" height="76" filterUnits="userSpaceOnUse" color-interpolation-filters="sRGB">
<feFlood flood-opacity="0" result="BackgroundImageFix"/>
<feColorMatrix in="SourceAlpha" type="matrix" values="0 0 0 0 0 0 0 0 0 0 0 0 0 0 0 0 0 0 127 0" result="hardAlpha"/>
<feOffset dx="1" dy="2"/>
<feGaussianBlur stdDeviation="3"/>
<feComposite in2="hardAlpha" operator="out"/>
<feColorMatrix type="matrix" values="0 0 0 0 0.407843 0 0 0 0 0.309804 0 0 0 0 1 0 0 0 0.1 0"/>
<feBlend mode="normal" in2="BackgroundImageFix" result="effect1_dropShadow_40_745"/>
<feBlend mode="normal" in="SourceGraphic" in2="effect1_dropShadow_40_745" result="shape"/>
</filter>
</defs>
</svg>
