<svg width="86" height="85" viewBox="0 0 86 85" fill="none" xmlns="http://www.w3.org/2000/svg">
<rect x="1" y="0.5" width="84" height="84" rx="42" fill="#684FFF"/>
<rect x="1" y="0.5" width="84" height="84" rx="42" stroke="black"/>
<path fill-rule="evenodd" clip-rule="evenodd" d="M30.7502 42.5C30.7502 42.9062 30.9115 43.2956 31.1987 43.5828C31.4858 43.87 31.8753 44.0313 32.2814 44.0313H50.0225L43.4473 50.6034C43.3049 50.7458 43.192 50.9148 43.115 51.1008C43.0379 51.2868 42.9983 51.4862 42.9983 51.6875C42.9983 51.8889 43.0379 52.0883 43.115 52.2743C43.192 52.4603 43.3049 52.6293 43.4473 52.7717C43.5897 52.914 43.7587 53.027 43.9447 53.104C44.1307 53.1811 44.3301 53.2207 44.5314 53.2207C44.7328 53.2207 44.9322 53.1811 45.1182 53.104C45.3042 53.027 45.4732 52.914 45.6156 52.7717L54.8031 43.5842C54.9457 43.4419 55.0588 43.273 55.136 43.0869C55.2132 42.9009 55.2529 42.7015 55.2529 42.5C55.2529 42.2986 55.2132 42.0992 55.136 41.9132C55.0588 41.7271 54.9457 41.5582 54.8031 41.4159L45.6156 32.2284C45.328 31.9409 44.9381 31.7794 44.5314 31.7794C44.1248 31.7794 43.7348 31.9409 43.4473 32.2284C43.1598 32.5159 42.9983 32.9059 42.9983 33.3125C42.9983 33.7192 43.1598 34.1091 43.4473 34.3967L50.0225 40.9688H32.2814C31.8753 40.9688 31.4858 41.1301 31.1987 41.4173C30.9115 41.7045 30.7502 42.0939 30.7502 42.5Z" fill="white"/>
</svg>
