<svg width="159" height="58" viewBox="0 0 159 58" fill="none" xmlns="http://www.w3.org/2000/svg">
<rect x="0.547363" width="157.905" height="58" rx="29" fill="#684FFF"/>
<g clip-path="url(#clip0_40_1013)">
<path d="M40.9653 22.1338L27.1137 28.8932C26.5301 29.178 26.1636 29.7583 26.1572 30.4075C26.1508 31.0569 26.5057 31.6443 27.0835 31.9406L31.6467 34.2804L35.7538 29.6304C35.9428 29.4165 36.2695 29.3962 36.4835 29.5852C36.6975 29.7742 36.7177 30.1009 36.5287 30.3149L32.4217 34.9649L35.3072 39.2041C35.6726 39.7409 36.2993 40.0206 36.9429 39.934C37.5877 39.8472 38.1173 39.4109 38.3275 38.7978L43.3243 24.2173C43.5518 23.5535 43.3664 22.8525 42.8405 22.388C42.3145 21.9234 41.596 21.8259 40.9653 22.1338Z" fill="white"/>
</g>
<path d="M58.3166 35.112C57.57 35.112 56.898 34.984 56.3006 34.728C55.7033 34.4613 55.234 34.088 54.8926 33.608C54.5513 33.128 54.3806 32.568 54.3806 31.928H56.3326C56.3753 32.408 56.562 32.8027 56.8926 33.112C57.234 33.4213 57.7086 33.576 58.3166 33.576C58.946 33.576 59.4366 33.4267 59.7886 33.128C60.1406 32.8187 60.3166 32.424 60.3166 31.944C60.3166 31.5707 60.2046 31.2667 59.9806 31.032C59.7673 30.7973 59.4953 30.616 59.1646 30.488C58.8446 30.36 58.3966 30.2213 57.8206 30.072C57.0953 29.88 56.5033 29.688 56.0446 29.496C55.5966 29.2933 55.2126 28.984 54.8926 28.568C54.5726 28.152 54.4126 27.5973 54.4126 26.904C54.4126 26.264 54.5726 25.704 54.8926 25.224C55.2126 24.744 55.6606 24.376 56.2366 24.12C56.8126 23.864 57.4793 23.736 58.2366 23.736C59.314 23.736 60.194 24.008 60.8766 24.552C61.57 25.0853 61.954 25.8213 62.0286 26.76H60.0126C59.9806 26.3547 59.7886 26.008 59.4366 25.72C59.0846 25.432 58.6206 25.288 58.0446 25.288C57.522 25.288 57.0953 25.4213 56.7646 25.688C56.434 25.9547 56.2686 26.3387 56.2686 26.84C56.2686 27.1813 56.37 27.464 56.5726 27.688C56.786 27.9013 57.0526 28.072 57.3726 28.2C57.6926 28.328 58.13 28.4667 58.6846 28.616C59.4206 28.8187 60.018 29.0213 60.4766 29.224C60.946 29.4267 61.3406 29.7413 61.6606 30.168C61.9913 30.584 62.1566 31.144 62.1566 31.848C62.1566 32.4133 62.002 32.9467 61.6926 33.448C61.394 33.9493 60.9513 34.3547 60.3646 34.664C59.7886 34.9627 59.106 35.112 58.3166 35.112ZM72.2929 26.184V35H70.4689V33.96C70.1809 34.3227 69.8022 34.6107 69.3329 34.824C68.8742 35.0267 68.3836 35.128 67.8609 35.128C67.1676 35.128 66.5436 34.984 65.9889 34.696C65.4449 34.408 65.0129 33.9813 64.6929 33.416C64.3836 32.8507 64.2289 32.168 64.2289 31.368V26.184H66.0369V31.096C66.0369 31.8853 66.2342 32.4933 66.6289 32.92C67.0236 33.336 67.5622 33.544 68.2449 33.544C68.9276 33.544 69.4662 33.336 69.8609 32.92C70.2662 32.4933 70.4689 31.8853 70.4689 31.096V26.184H72.2929ZM76.5235 27.496C76.8328 27.0693 77.2542 26.7227 77.7875 26.456C78.3315 26.1787 78.9342 26.04 79.5955 26.04C80.3742 26.04 81.0782 26.2267 81.7075 26.6C82.3368 26.9733 82.8328 27.5067 83.1955 28.2C83.5582 28.8827 83.7395 29.6667 83.7395 30.552C83.7395 31.4373 83.5582 32.232 83.1955 32.936C82.8328 33.6293 82.3315 34.1733 81.6915 34.568C81.0622 34.952 80.3635 35.144 79.5955 35.144C78.9128 35.144 78.3048 35.0107 77.7715 34.744C77.2488 34.4773 76.8328 34.136 76.5235 33.72V35H74.6995V23.16H76.5235V27.496ZM81.8835 30.552C81.8835 29.944 81.7555 29.4213 81.4995 28.984C81.2542 28.536 80.9235 28.2 80.5075 27.976C80.1022 27.7413 79.6648 27.624 79.1955 27.624C78.7368 27.624 78.2995 27.7413 77.8835 27.976C77.4782 28.2107 77.1475 28.552 76.8915 29C76.6462 29.448 76.5235 29.976 76.5235 30.584C76.5235 31.192 76.6462 31.7253 76.8915 32.184C77.1475 32.632 77.4782 32.9733 77.8835 33.208C78.2995 33.4427 78.7368 33.56 79.1955 33.56C79.6648 33.56 80.1022 33.4427 80.5075 33.208C80.9235 32.9627 81.2542 32.6107 81.4995 32.152C81.7555 31.6933 81.8835 31.16 81.8835 30.552ZM88.7433 35.144C88.0499 35.144 87.4259 35.0213 86.8713 34.776C86.3273 34.52 85.8953 34.1787 85.5753 33.752C85.2553 33.3147 85.0846 32.8293 85.0633 32.296H86.9513C86.9833 32.6693 87.1593 32.984 87.4793 33.24C87.8099 33.4853 88.2206 33.608 88.7113 33.608C89.2233 33.608 89.6179 33.512 89.8953 33.32C90.1833 33.1173 90.3273 32.8613 90.3273 32.552C90.3273 32.2213 90.1673 31.976 89.8473 31.816C89.5379 31.656 89.0419 31.48 88.3593 31.288C87.6979 31.1067 87.1593 30.9307 86.7433 30.76C86.3273 30.5893 85.9646 30.328 85.6553 29.976C85.3566 29.624 85.2073 29.16 85.2073 28.584C85.2073 28.1147 85.3459 27.688 85.6233 27.304C85.9006 26.9093 86.2953 26.6 86.8073 26.376C87.3299 26.152 87.9273 26.04 88.5993 26.04C89.6019 26.04 90.4073 26.296 91.0153 26.808C91.6339 27.3093 91.9646 27.9973 92.0073 28.872H90.1833C90.1513 28.4773 89.9913 28.1627 89.7033 27.928C89.4153 27.6933 89.0259 27.576 88.5353 27.576C88.0553 27.576 87.6873 27.6667 87.4313 27.848C87.1753 28.0293 87.0473 28.2693 87.0473 28.568C87.0473 28.8027 87.1326 29 87.3033 29.16C87.4739 29.32 87.6819 29.448 87.9273 29.544C88.1726 29.6293 88.5353 29.7413 89.0153 29.88C89.6553 30.0507 90.1779 30.2267 90.5833 30.408C90.9993 30.5787 91.3566 30.8347 91.6553 31.176C91.9539 31.5173 92.1086 31.9707 92.1193 32.536C92.1193 33.0373 91.9806 33.4853 91.7033 33.88C91.4259 34.2747 91.0313 34.584 90.5193 34.808C90.0179 35.032 89.4259 35.144 88.7433 35.144ZM93.4821 30.584C93.4821 29.6773 93.6635 28.8827 94.0261 28.2C94.3995 27.5067 94.9115 26.9733 95.5621 26.6C96.2128 26.2267 96.9595 26.04 97.8021 26.04C98.8688 26.04 99.7488 26.296 100.442 26.808C101.146 27.3093 101.621 28.0293 101.866 28.968H99.8981C99.7381 28.5307 99.4821 28.1893 99.1301 27.944C98.7781 27.6987 98.3355 27.576 97.8021 27.576C97.0555 27.576 96.4581 27.8427 96.0101 28.376C95.5728 28.8987 95.3541 29.6347 95.3541 30.584C95.3541 31.5333 95.5728 32.2747 96.0101 32.808C96.4581 33.3413 97.0555 33.608 97.8021 33.608C98.8581 33.608 99.5568 33.144 99.8981 32.216H101.866C101.61 33.112 101.13 33.8267 100.426 34.36C99.7221 34.8827 98.8475 35.144 97.8021 35.144C96.9595 35.144 96.2128 34.9573 95.5621 34.584C94.9115 34.2 94.3995 33.6667 94.0261 32.984C93.6635 32.2907 93.4821 31.4907 93.4821 30.584ZM105.508 27.464C105.775 27.016 106.127 26.6693 106.564 26.424C107.012 26.168 107.54 26.04 108.148 26.04V27.928H107.684C106.969 27.928 106.425 28.1093 106.052 28.472C105.689 28.8347 105.508 29.464 105.508 30.36V35H103.684V26.184H105.508V27.464ZM110.753 25.016C110.422 25.016 110.145 24.904 109.921 24.68C109.697 24.456 109.585 24.1787 109.585 23.848C109.585 23.5173 109.697 23.24 109.921 23.016C110.145 22.792 110.422 22.68 110.753 22.68C111.073 22.68 111.345 22.792 111.569 23.016C111.793 23.24 111.905 23.5173 111.905 23.848C111.905 24.1787 111.793 24.456 111.569 24.68C111.345 24.904 111.073 25.016 110.753 25.016ZM111.649 26.184V35H109.825V26.184H111.649ZM115.867 27.496C116.177 27.0693 116.598 26.7227 117.131 26.456C117.675 26.1787 118.278 26.04 118.939 26.04C119.718 26.04 120.422 26.2267 121.051 26.6C121.681 26.9733 122.177 27.5067 122.539 28.2C122.902 28.8827 123.083 29.6667 123.083 30.552C123.083 31.4373 122.902 32.232 122.539 32.936C122.177 33.6293 121.675 34.1733 121.035 34.568C120.406 34.952 119.707 35.144 118.939 35.144C118.257 35.144 117.649 35.0107 117.115 34.744C116.593 34.4773 116.177 34.136 115.867 33.72V35H114.043V23.16H115.867V27.496ZM121.227 30.552C121.227 29.944 121.099 29.4213 120.843 28.984C120.598 28.536 120.267 28.2 119.851 27.976C119.446 27.7413 119.009 27.624 118.539 27.624C118.081 27.624 117.643 27.7413 117.227 27.976C116.822 28.2107 116.491 28.552 116.235 29C115.99 29.448 115.867 29.976 115.867 30.584C115.867 31.192 115.99 31.7253 116.235 32.184C116.491 32.632 116.822 32.9733 117.227 33.208C117.643 33.4427 118.081 33.56 118.539 33.56C119.009 33.56 119.446 33.4427 119.851 33.208C120.267 32.9627 120.598 32.6107 120.843 32.152C121.099 31.6933 121.227 31.16 121.227 30.552ZM132.967 30.376C132.967 30.7067 132.946 31.0053 132.903 31.272H126.167C126.22 31.976 126.482 32.5413 126.951 32.968C127.42 33.3947 127.996 33.608 128.679 33.608C129.66 33.608 130.354 33.1973 130.759 32.376H132.727C132.46 33.1867 131.975 33.8533 131.271 34.376C130.578 34.888 129.714 35.144 128.679 35.144C127.836 35.144 127.079 34.9573 126.407 34.584C125.746 34.2 125.223 33.6667 124.839 32.984C124.466 32.2907 124.279 31.4907 124.279 30.584C124.279 29.6773 124.46 28.8827 124.823 28.2C125.196 27.5067 125.714 26.9733 126.375 26.6C127.047 26.2267 127.815 26.04 128.679 26.04C129.511 26.04 130.252 26.2213 130.903 26.584C131.554 26.9467 132.06 27.4587 132.423 28.12C132.786 28.7707 132.967 29.5227 132.967 30.376ZM131.063 29.8C131.052 29.128 130.812 28.5893 130.343 28.184C129.874 27.7787 129.292 27.576 128.599 27.576C127.97 27.576 127.431 27.7787 126.983 28.184C126.535 28.5787 126.268 29.1173 126.183 29.8H131.063Z" fill="white"/>
<defs>
<clipPath id="clip0_40_1013">
<rect width="17.6445" height="17.6445" fill="white" transform="translate(24.5474 29.772) rotate(-48.5475)"/>
</clipPath>
</defs>
</svg>
